<svg width="22" height="22" viewBox="0 0 22 22" fill="none" xmlns="http://www.w3.org/2000/svg">
<path d="M11.4599 21.75C11.2899 21.75 11.1199 21.75 10.9499 21.74C5.34995 21.49 0.669948 16.98 0.279948 11.48C-0.0600518 6.75999 2.66995 2.34999 7.06995 0.499992C8.31995 -0.0200076 8.97995 0.379992 9.25995 0.669992C9.53995 0.949992 9.92995 1.59999 9.40995 2.78999C8.94995 3.84999 8.71995 4.97999 8.72995 6.13999C8.74995 10.57 12.4299 14.33 16.9199 14.51C17.5699 14.54 18.2099 14.49 18.8299 14.38C20.1499 14.14 20.6999 14.67 20.9099 15.01C21.1199 15.35 21.3599 16.08 20.5599 17.16C18.4399 20.06 15.0699 21.75 11.4599 21.75ZM1.76995 11.37C2.10995 16.13 6.16995 20.03 11.0099 20.24C14.2999 20.4 17.4199 18.9 19.3399 16.28C19.4899 16.07 19.5599 15.92 19.5899 15.84C19.4999 15.83 19.3399 15.82 19.0899 15.87C18.3599 16 17.5999 16.05 16.8499 16.02C11.5699 15.81 7.24995 11.38 7.21995 6.15999C7.21995 4.77999 7.48995 3.44999 8.03995 2.19999C8.13995 1.97999 8.15995 1.82999 8.16995 1.74999C8.07995 1.74999 7.91995 1.76999 7.65995 1.87999C3.84995 3.47999 1.48995 7.29999 1.76995 11.37Z" fill="black"/>
</svg>
