<svg width="20" height="20" viewBox="0 0 20 20" fill="none" xmlns="http://www.w3.org/2000/svg">
<path d="M19.5302 13.93C19.3702 13.66 18.9202 13.24 17.8002 13.44C17.1802 13.55 16.5502 13.6 15.9202 13.57C13.5902 13.47 11.4802 12.4 10.0102 10.75C8.7102 9.29999 7.9102 7.40999 7.9002 5.36999C7.9002 4.22999 8.1202 3.12999 8.5702 2.08999C9.0102 1.07999 8.7002 0.549994 8.4802 0.329994C8.2502 0.0999944 7.7102 -0.220006 6.6502 0.219994C2.5602 1.93999 0.0301965 6.03999 0.330197 10.43C0.630197 14.56 3.5302 18.09 7.3702 19.42C8.2902 19.74 9.2602 19.93 10.2602 19.97C10.4202 19.98 10.5802 19.99 10.7402 19.99C14.0902 19.99 17.2302 18.41 19.2102 15.72C19.8802 14.79 19.7002 14.2 19.5302 13.93Z" fill="white"/>
</svg>
