<svg width="22" height="23" viewBox="0 0 22 23" fill="black" xmlns="http://www.w3.org/2000/svg">
<path d="M11 19.1687C7 19.1687 3.75 15.9187 3.75 11.9187C3.75 7.9187 7 4.6687 11 4.6687C15 4.6687 18.25 7.9187 18.25 11.9187C18.25 15.9187 15 19.1687 11 19.1687ZM11 6.1687C7.83 6.1687 5.25 8.7487 5.25 11.9187C5.25 15.0887 7.83 17.6687 11 17.6687C14.17 17.6687 16.75 15.0887 16.75 11.9187C16.75 8.7487 14.17 6.1687 11 6.1687Z" fill="white"/>
<path d="M11 22.8787C10.45 22.8787 10 22.4687 10 21.9187V21.8387C10 21.2887 10.45 20.8387 11 20.8387C11.55 20.8387 12 21.2887 12 21.8387C12 22.3887 11.55 22.8787 11 22.8787ZM18.14 20.0587C17.88 20.0587 17.63 19.9587 17.43 19.7687L17.3 19.6387C16.91 19.2487 16.91 18.6187 17.3 18.2287C17.69 17.8387 18.32 17.8387 18.71 18.2287L18.84 18.3587C19.23 18.7487 19.23 19.3787 18.84 19.7687C18.65 19.9587 18.4 20.0587 18.14 20.0587ZM3.86 20.0587C3.6 20.0587 3.35 19.9587 3.15 19.7687C2.76 19.3787 2.76 18.7487 3.15 18.3587L3.28 18.2287C3.67 17.8387 4.3 17.8387 4.69 18.2287C5.08 18.6187 5.08 19.2487 4.69 19.6387L4.56 19.7687C4.37 19.9587 4.11 20.0587 3.86 20.0587ZM21 12.9187H20.92C20.37 12.9187 19.92 12.4687 19.92 11.9187C19.92 11.3687 20.37 10.9187 20.92 10.9187C21.47 10.9187 21.96 11.3687 21.96 11.9187C21.96 12.4687 21.55 12.9187 21 12.9187ZM1.08 12.9187H1C0.45 12.9187 0 12.4687 0 11.9187C0 11.3687 0.45 10.9187 1 10.9187C1.55 10.9187 2.04 11.3687 2.04 11.9187C2.04 12.4687 1.63 12.9187 1.08 12.9187ZM18.01 5.9087C17.75 5.9087 17.5 5.8087 17.3 5.6187C16.91 5.2287 16.91 4.5987 17.3 4.2087L17.43 4.0787C17.82 3.6887 18.45 3.6887 18.84 4.0787C19.23 4.4687 19.23 5.0987 18.84 5.4887L18.71 5.6187C18.52 5.8087 18.27 5.9087 18.01 5.9087ZM3.99 5.9087C3.73 5.9087 3.48 5.8087 3.28 5.6187L3.15 5.4787C2.76 5.0887 2.76 4.4587 3.15 4.0687C3.54 3.6787 4.17 3.6787 4.56 4.0687L4.69 4.1987C5.08 4.5887 5.08 5.2187 4.69 5.6087C4.5 5.8087 4.24 5.9087 3.99 5.9087ZM11 2.9587C10.45 2.9587 10 2.5487 10 1.9987V1.9187C10 1.3687 10.45 0.918701 11 0.918701C11.55 0.918701 12 1.3687 12 1.9187C12 2.4687 11.55 2.9587 11 2.9587Z" fill="white"/>
</svg>
